<svg xmlns="http://www.w3.org/2000/svg" width="24" height="24" viewBox="0 0 24 24"><g transform="translate(-5.5 -4.565)"><g transform="translate(-1192 -35)"><g transform="translate(1192.5 35.679)"><circle cx="12" cy="12" r="12" transform="translate(5 3.886)" fill="#4fffe4"/><g transform="translate(5 3.886)"><path d="M19.61,12.933H17.289a.933.933,0,1,1,0-1.867H19.61a.933.933,0,0,1,0,1.867Zm-1.569,5.108a.934.934,0,0,1-1.32,0L15.079,16.4a.933.933,0,1,1,1.32-1.32l1.643,1.643a.933.933,0,0,1,0,1.32ZM12,15.115A3.115,3.115,0,1,1,15.115,12,3.119,3.119,0,0,1,12,15.115Zm.933,4.5a.933.933,0,1,1-1.867,0V17.289a.933.933,0,1,1,1.867,0ZM8.921,16.4,7.278,18.042a.933.933,0,0,1-1.32-1.32L7.6,15.079a.933.933,0,0,1,1.32,1.32ZM3.457,12a.933.933,0,0,1,.933-.933H6.711a.933.933,0,1,1,0,1.867H4.39A.933.933,0,0,1,3.457,12Zm2.5-6.042a.933.933,0,0,1,1.32,0L8.921,7.6A.933.933,0,0,1,7.6,8.921L5.958,7.278a.933.933,0,0,1,0-1.32ZM11.067,4.39a.933.933,0,0,1,1.867,0V6.711a.933.933,0,0,1-1.867,0ZM15.079,7.6l1.643-1.643a.933.933,0,0,1,1.32,1.32L16.4,8.921a.933.933,0,1,1-1.32-1.32ZM12,0A12,12,0,1,0,24,12,12,12,0,0,0,12,0Z" fill="#00183c" fill-rule="evenodd"/></g></g></g></g></svg>